<svg width="1688" height="2007" viewBox="0 0 1688 2007" fill="none" xmlns="http://www.w3.org/2000/svg">
<g clip-path="url(#clip0_1133_2107)">
<path fill-rule="evenodd" clip-rule="evenodd" d="M278.338 1653.3C296.176 1704.21 303.058 1740.36 281.211 1761.8C261.1 1781.58 -0.468033 1809.44 -0.000350163 1758.46C0.600956 1690.45 144.246 1710.76 177.652 1618.7C192.217 1578.61 264.24 1613.15 278.338 1653.3V1653.3Z" fill="#85D0FF"/>
<path fill-rule="evenodd" clip-rule="evenodd" d="M293.838 1710.69C296.778 1732.54 293.704 1749.58 281.211 1761.87C261.1 1781.58 -0.468033 1809.44 -0.000350163 1758.46C-0.000350163 1752.12 1.4027 1746.5 3.74111 1741.56C35.5435 1778.91 262.503 1753.59 281.211 1735.28C288.092 1728.53 292.101 1720.38 293.838 1710.69V1710.69Z" fill="#69B7E8"/>
<path fill-rule="evenodd" clip-rule="evenodd" d="M179.055 1659.65C174.98 1709.29 280.543 1777.37 293.304 1713.23C292.235 1628.85 188.008 1601.86 179.055 1659.65V1659.65Z" fill="#F0B7AA"/>
<path fill-rule="evenodd" clip-rule="evenodd" d="M315.953 1343.77C325.975 1426.95 292.302 1577.87 305.798 1669.07C271.991 1697.73 141.107 1684.97 94.7393 1656.71C135.428 1547.27 150.661 1394.34 147.988 1266.87C144.113 1080.07 317.156 1094.3 304.862 1219.77C303.192 1236.87 310.207 1296.33 315.953 1343.77V1343.77Z" fill="#343F51"/>
<path fill-rule="evenodd" clip-rule="evenodd" d="M687.894 479.568L573.847 526.67L625.025 677.195L739.072 630.093L687.894 479.568Z" fill="#E8AB9D"/>
<path fill-rule="evenodd" clip-rule="evenodd" d="M495.543 340.335C487.592 420.308 452.717 674.39 590.95 626.553C643.932 608.18 727.246 571.568 778.29 494.869C822.587 428.258 826.929 304.658 746.154 264.705C641.994 213.194 502.491 270.451 495.543 340.335V340.335Z" fill="#F0B7AA"/>
<path fill-rule="evenodd" clip-rule="evenodd" d="M766.799 1306.89C719.229 1362.81 630.369 1340.43 575.317 1307.02C513.783 1269.67 294.172 1257.38 239.52 1246.36C160.682 1230.46 144.38 1136.79 254.687 1114.74C380.426 1089.62 561.62 1092.76 705.466 1112.27C782.567 1122.76 803.011 1070.71 807.888 1108.53C814.436 1160.17 802.878 1264.53 766.866 1306.89H766.799Z" fill="#343F51"/>
<path fill-rule="evenodd" clip-rule="evenodd" d="M732.257 603.437C833.343 787.901 765.128 986.798 806.752 1113.07C740.809 1155.56 585.939 1136.99 508.104 1117.75C523.671 940.498 509.306 886.782 608.588 650.471C624.089 649.603 696.179 631.698 732.19 603.437H732.257Z" fill="#CC3D3D"/>
<path fill-rule="evenodd" clip-rule="evenodd" d="M685.222 667.107C582.265 687.885 625.826 875.423 627.229 971.497C628.164 1034.83 702.86 1062.56 720.431 997.353C738.003 932.146 798.935 644.124 685.222 667.107Z" fill="#E66E6E"/>
<path fill-rule="evenodd" clip-rule="evenodd" d="M703.595 245.664C691.568 231.567 616.873 215.733 552.867 257.088C488.861 298.444 442.227 305.192 429.199 307.998C416.17 310.804 458.796 363.051 529.683 375.077C552.6 378.952 592.219 386.301 604.914 467.075C608.254 488.054 631.371 492.196 634.177 463.334C639.923 403.538 660.234 432.267 673.262 475.627C689.564 530.078 691.101 540.367 718.894 571.835C798.801 517.851 841.628 381.09 807.086 309.001C784.303 261.498 742.412 232.903 703.595 245.664V245.664Z" fill="#343F51"/>
<path fill-rule="evenodd" clip-rule="evenodd" d="M666.314 390.109C650.346 388.372 634.645 411.689 631.304 442.221C627.964 472.754 638.186 498.944 654.154 500.681C670.122 502.418 685.823 479.101 689.163 448.568C692.504 418.036 682.282 391.846 666.314 390.109Z" fill="#F0B7AA"/>
<path fill-rule="evenodd" clip-rule="evenodd" d="M450.512 1064.16C349.56 1051.8 337.4 1096.43 331.387 1145.67C325.307 1194.85 357.31 1206.34 367.599 1166.25C377.888 1126.1 435.413 1143.6 468.819 1136.45C502.224 1129.37 490.8 1071.85 450.512 1064.23V1064.16Z" fill="#FBC9BE"/>
<path fill-rule="evenodd" clip-rule="evenodd" d="M690.099 1038.17C607.988 1098.84 515.854 1126.37 424.99 1148.88C400.67 1133.38 394.858 1087.48 392.052 1058.82C446.503 1033.3 591.151 974.838 644.133 952.657C737.335 913.706 745.887 1014.39 690.099 1038.11V1038.17Z" fill="#E66E6E"/>
<path fill-rule="evenodd" clip-rule="evenodd" d="M486.591 445.161C468.885 494.468 428.999 537.895 490.532 546.514C552.066 555.132 503.895 412.558 486.591 445.161Z" fill="#F0B7AA"/>
<path fill-rule="evenodd" clip-rule="evenodd" d="M1390.29 1793.67C1392.89 1837.37 1428.3 1899.1 1412.6 1927.23C1386.95 1973.19 1344.25 1935.85 1251.79 1954.09C1209.69 1962.44 1134.4 1958.36 1120.03 1940.72C1105.67 1923.09 1122.77 1909.86 1156.98 1898.83C1243.5 1870.97 1278.38 1847.79 1283.86 1766.35C1285.79 1737.08 1386.08 1721.52 1390.35 1793.61L1390.29 1793.67Z" fill="#F0BBAF"/>
<path fill-rule="evenodd" clip-rule="evenodd" d="M1242.77 1846.79C1273.57 1856.47 1310.71 1892.35 1317.93 1927.23C1339.98 1940.19 1397.3 1928.9 1418.68 1928.9C1440.06 1928.9 1443.47 1978.47 1425.96 1978.47H1225.86C1147.36 1978.47 1106.54 1964.91 1107.14 1926.36C1107.47 1907.72 1124.91 1874.85 1155.11 1875.98C1185.11 1877.12 1223.12 1859.28 1242.7 1846.85L1242.77 1846.79Z" fill="#5EAEE0"/>
<path fill-rule="evenodd" clip-rule="evenodd" d="M1446.14 1433.5C1461.71 1621.9 1426.5 1739.76 1430.04 1838.37C1402.58 1861.42 1266.28 1856.01 1245.97 1810.18C1260.81 1729.8 1305.7 1473.18 1292.27 1423.81C1281.85 1385.52 1291.27 1323.66 1289 1277.29C1278.98 1077.79 1460.51 1110.8 1441.2 1296.13C1437.26 1333.75 1444 1407.1 1446.14 1433.5Z" fill="#74BFED"/>
<path fill-rule="evenodd" clip-rule="evenodd" d="M1498.99 1101.78C1459.44 1169.06 1447.61 1346.97 1428.44 1405.5C1400.84 1489.88 1290.4 1510.06 1290.07 1388.06C1289.67 1248.96 1278.18 1122.49 1329.76 940.631C1366.64 810.683 1584.04 956.999 1498.99 1101.78Z" fill="#74BFED"/>
<path fill-rule="evenodd" clip-rule="evenodd" d="M1020.55 792.378C924.074 760.776 852.919 799.059 836.751 845.96C820.582 892.861 849.178 901.213 867.551 864.066C885.991 826.919 1006.12 850.303 1045.6 845.626C1085.09 840.882 1058.37 808.279 1020.48 792.378H1020.55Z" fill="#F0BBAF"/>
<path fill-rule="evenodd" clip-rule="evenodd" d="M1251.38 558.406C1278.31 506.828 1323.74 437.612 1334.7 414.228C1340.91 400.999 1426.9 456.92 1418.95 503.421C1412.94 538.964 1328.62 569.029 1251.38 558.406Z" fill="#E8AB9D"/>
<path fill-rule="evenodd" clip-rule="evenodd" d="M257.627 1802.89C314.016 1802.89 359.715 1848.59 359.715 1904.98C359.715 1961.37 314.016 2007.07 257.627 2007.07C201.237 2007.07 155.538 1961.37 155.538 1904.98C155.538 1848.59 201.237 1802.89 257.627 1802.89Z" fill="#343F51"/>
<path fill-rule="evenodd" clip-rule="evenodd" d="M257.626 1848.86C288.627 1848.86 313.748 1873.98 313.748 1904.98C313.748 1935.98 288.627 1961.1 257.626 1961.1C226.625 1961.1 201.504 1935.98 201.504 1904.98C201.504 1873.98 226.625 1848.86 257.626 1848.86Z" fill="#495870"/>
<path d="M960.687 843.153H791.119C778.462 843.153 768.202 853.413 768.202 866.07C768.202 878.726 778.462 888.986 791.119 888.986H960.687C973.343 888.986 983.603 878.726 983.603 866.07C983.603 853.413 973.343 843.153 960.687 843.153Z" fill="#BAB6B6"/>
<path d="M787.244 1309.16C799.871 1309.16 810.16 1319.45 810.16 1332.08V1647.29C810.16 1659.92 799.871 1670.21 787.244 1670.21C774.616 1670.21 764.327 1659.92 764.327 1647.29V1332.08C764.327 1319.45 774.616 1309.16 787.244 1309.16Z" fill="#BAB6B6"/>
<path fill-rule="evenodd" clip-rule="evenodd" d="M729.184 1404.23L758.648 882.572C759.984 859.388 779.961 842.819 803.211 842.819C826.462 842.819 844.3 864.199 842.964 887.382L813.5 1409.04C812.164 1432.23 792.187 1448.79 768.937 1448.79C745.686 1448.79 727.847 1427.41 729.184 1404.23V1404.23Z" fill="#1573AD"/>
<path d="M788.446 1253.77H312.612C300.62 1253.77 290.898 1263.49 290.898 1275.49V1405.57C290.898 1417.56 300.62 1427.28 312.612 1427.28H788.446C800.438 1427.28 810.16 1417.56 810.16 1405.57V1275.49C810.16 1263.49 800.438 1253.77 788.446 1253.77Z" fill="#1573AD"/>
<path d="M787.244 1142.13H384.235C371.578 1142.13 361.318 1152.39 361.318 1165.05C361.318 1177.7 371.578 1187.96 384.235 1187.96H787.244C799.9 1187.96 810.16 1177.7 810.16 1165.05C810.16 1152.39 799.9 1142.13 787.244 1142.13Z" fill="#BAB6B6"/>
<path d="M283.415 1408.44H787.243C799.871 1408.44 810.16 1418.73 810.16 1431.36C810.16 1443.98 799.871 1454.27 787.243 1454.27H283.415C270.788 1454.27 260.499 1443.98 260.499 1431.36C260.499 1418.73 270.788 1408.44 283.415 1408.44Z" fill="#BAB6B6"/>
<path d="M787.244 1309.16H257.626C244.97 1309.16 234.71 1319.42 234.71 1332.08C234.71 1344.73 244.97 1354.99 257.626 1354.99H787.244C799.9 1354.99 810.16 1344.73 810.16 1332.08C810.16 1319.42 799.9 1309.16 787.244 1309.16Z" fill="#BAB6B6"/>
<path d="M423.787 1773.56H266.78C254.123 1773.56 243.863 1783.82 243.863 1796.48C243.863 1809.14 254.123 1819.39 266.78 1819.39H423.787C436.444 1819.39 446.704 1809.14 446.704 1796.48C446.704 1783.82 436.444 1773.56 423.787 1773.56Z" fill="#BAB6B6"/>
<path d="M280.543 1332.08C280.543 1319.42 270.283 1309.16 257.626 1309.16C244.97 1309.16 234.71 1319.42 234.71 1332.08V1882C234.71 1894.65 244.97 1904.91 257.626 1904.91C270.283 1904.91 280.543 1894.65 280.543 1882V1332.08Z" fill="#BAB6B6"/>
<path d="M787.244 1859.15H497.013C484.357 1859.15 474.097 1869.41 474.097 1882.06C474.097 1894.72 484.357 1904.98 497.013 1904.98H787.244C799.9 1904.98 810.16 1894.72 810.16 1882.06C810.16 1869.41 799.9 1859.15 787.244 1859.15Z" fill="#BAB6B6"/>
<path d="M369.536 1773.56H46.3672V1819.39H369.536V1773.56Z" fill="#BAB6B6"/>
<path fill-rule="evenodd" clip-rule="evenodd" d="M279.273 1889.55L303.059 1802.96C311.076 1773.76 204.177 1773.76 212.194 1802.96L235.846 1889.21C241.592 1910.06 273.728 1909.52 279.207 1889.55H279.273Z" fill="#D9D5D5"/>
<path fill-rule="evenodd" clip-rule="evenodd" d="M405.413 1811.31L478.639 1896.9C486.857 1906.45 501.355 1907.59 510.909 1899.43C520.463 1891.22 521.599 1876.72 513.448 1867.1L440.222 1781.51C432.005 1771.96 417.506 1770.82 407.886 1778.97C398.331 1787.19 397.196 1801.69 405.347 1811.31H405.413Z" fill="#BAB6B6"/>
<path d="M787.243 1664.33L679.008 1961.63M787.243 1664.33V1980.68V1664.33ZM787.243 1664.33L895.478 1961.63L787.243 1664.33ZM787.243 1664.33L990.618 1906.65L787.243 1664.33ZM787.243 1664.33L1061.24 1822.53L787.243 1664.33ZM787.243 1664.33L1098.79 1719.24L787.243 1664.33ZM787.243 1664.33L1098.79 1609.41L787.243 1664.33ZM787.243 1664.33L1061.24 1506.12L787.243 1664.33ZM787.243 1664.33L990.618 1422L787.243 1664.33ZM787.243 1664.33L895.478 1367.02L787.243 1664.33ZM787.243 1664.33V1347.98V1664.33ZM787.243 1664.33L679.074 1367.02L787.243 1664.33ZM787.243 1664.33L583.868 1422L787.243 1664.33ZM787.243 1664.33L513.247 1506.12L787.243 1664.33ZM787.243 1664.33L475.699 1609.41L787.243 1664.33ZM787.243 1664.33L475.699 1719.24L787.243 1664.33ZM787.243 1664.33L513.247 1822.53L787.243 1664.33ZM787.243 1664.33L583.868 1906.65L787.243 1664.33Z" stroke="#343F51" stroke-width="1.2" stroke-miterlimit="22.93"/>
<path fill-rule="evenodd" clip-rule="evenodd" d="M787.243 1321.72C976.521 1321.72 1129.92 1475.12 1129.92 1664.39C1129.92 1853.67 976.521 2007.07 787.243 2007.07C597.965 2007.07 444.565 1853.67 444.565 1664.39C444.565 1475.12 597.965 1321.72 787.243 1321.72V1321.72ZM787.243 1367.95C623.487 1367.95 490.799 1500.71 490.799 1664.39C490.799 1828.15 623.554 1960.83 787.243 1960.83C950.999 1960.83 1083.69 1828.08 1083.69 1664.39C1083.69 1500.64 950.932 1367.95 787.243 1367.95V1367.95Z" fill="#343F51"/>
<path fill-rule="evenodd" clip-rule="evenodd" d="M787.243 1400.69C932.893 1400.69 1050.88 1518.75 1050.88 1664.33C1050.88 1809.97 932.826 1927.96 787.243 1927.96C641.593 1927.96 523.604 1809.91 523.604 1664.33C523.604 1518.68 641.66 1400.69 787.243 1400.69V1400.69ZM787.243 1427.01C656.158 1427.01 549.927 1533.24 549.927 1664.33C549.927 1795.41 656.158 1901.64 787.243 1901.64C918.328 1901.64 1024.56 1795.41 1024.56 1664.33C1024.56 1533.24 918.328 1427.01 787.243 1427.01V1427.01Z" fill="#495870"/>
<path fill-rule="evenodd" clip-rule="evenodd" d="M787.243 1605.87C819.58 1605.87 845.77 1632.06 845.77 1664.39C845.77 1696.73 819.58 1722.92 787.243 1722.92C754.906 1722.92 728.716 1696.73 728.716 1664.39C728.716 1632.06 754.906 1605.87 787.243 1605.87Z" fill="#343F51"/>
<path d="M1545.29 815.628C1482.09 866.07 1378.93 914.308 1304.37 924.262" stroke="white" stroke-width="0.57" stroke-linecap="round" stroke-linejoin="round"/>
<path d="M1366.23 433.001C1384.94 425.986 1428.84 373.54 1432.78 344.744" stroke="white" stroke-width="0.57" stroke-linecap="round" stroke-linejoin="round"/>
<path fill-rule="evenodd" clip-rule="evenodd" d="M1608.49 1772.36C1620.19 1814.52 1667.82 1867.43 1658.4 1898.23C1643.04 1948.61 1593.39 1921.01 1506.81 1958.36C1467.45 1975.33 1392.96 1987.29 1375.19 1973.06C1357.42 1958.83 1371.38 1942.33 1402.45 1924.35C1481.15 1878.86 1510.35 1848.86 1498.59 1768.15C1494.38 1739.15 1589.05 1702.81 1608.43 1772.36H1608.49Z" fill="#F0BBAF"/>
<path fill-rule="evenodd" clip-rule="evenodd" d="M1404.05 266.509L1300.49 301.117L1325.21 468.812L1425.1 450.172L1404.05 266.509Z" fill="#E8AB9D"/>
<path fill-rule="evenodd" clip-rule="evenodd" d="M1568.81 1416.86C1626.67 1596.85 1631.28 1724.66 1644.84 1814.85C1623.33 1843.51 1489.3 1869.17 1459.17 1829.08C1456.43 1750.58 1447.14 1485.87 1422.82 1440.84C1403.98 1405.9 1390.49 1367.55 1377.73 1322.99C1322.74 1130.91 1509.55 1099.37 1532.8 1284.24C1537.54 1321.79 1560.66 1391.74 1568.74 1416.86H1568.81Z" fill="#85D0FF"/>
<path fill-rule="evenodd" clip-rule="evenodd" d="M1524.78 811.285C1622.46 1004.9 1556.85 1012.12 1537.21 1083.01C1516.43 1158.23 1550.97 1333.15 1547.56 1394.68C1542.68 1483.34 1441.26 1531.37 1409.39 1413.59C1373.05 1279.36 1314.32 1081.34 1309.44 892.461C1304.7 705.791 1491.84 746.145 1524.71 811.352L1524.78 811.285Z" fill="#85D0FF"/>
<path fill-rule="evenodd" clip-rule="evenodd" d="M1420.82 407.146C1516.23 509.233 1470.19 657.553 1494.78 744.407C1510.15 798.658 1599.94 869.076 1574.49 1065.97C1523.44 1111.93 1339.51 1115.54 1266.62 1096.17C1259 1005.04 1270.69 908.428 1273.3 858.253C1277.91 768.192 1200.14 727.237 1207.96 660.893C1213.37 615.061 1264.48 522.929 1271.63 503.353C1304.5 501.082 1383.81 461.93 1420.82 407.212V407.146Z" fill="#5BB4EB"/>
<path fill-rule="evenodd" clip-rule="evenodd" d="M1425.5 488.321C1317.73 445.094 1269.02 644.993 1230.94 744.14C1205.82 809.481 1247.64 853.309 1292.54 793.647C1337.44 733.985 1499.72 518.119 1425.5 488.321V488.321Z" fill="#F0BBAF"/>
<path fill-rule="evenodd" clip-rule="evenodd" d="M1243.63 829.658C1187.11 836.74 1095.91 842.887 1017.14 847.163C1009.26 834.736 996.832 819.102 1006.65 788.837C1071.73 784.294 1176.76 752.358 1226.73 734.987C1285.79 714.476 1310.25 828.79 1243.63 829.658Z" fill="#F0BBAF"/>
<path fill-rule="evenodd" clip-rule="evenodd" d="M1213.9 87.6563C1181.9 131.685 1138.54 272.054 1167.87 316.016C1164.26 368.997 1190.72 386.034 1234.68 382.426C1289.4 377.95 1390.62 369.665 1390.02 279.404C1389.69 229.964 1491.51 119.325 1423.23 69.4837C1347.59 14.2979 1261.07 22.7829 1213.9 87.6563V87.6563Z" fill="#F0BBAF"/>
<path fill-rule="evenodd" clip-rule="evenodd" d="M1177.89 195.89C1149.43 234.44 1101.53 263.035 1157.18 284.014C1212.83 304.992 1202.01 171.638 1177.89 195.89Z" fill="#F0B7AA"/>
<path fill-rule="evenodd" clip-rule="evenodd" d="M1258.67 8.08376C1088.56 -7.95086 1258.13 217.068 1347.19 226.489C1399.44 291.696 1401.91 395.854 1393.89 440.284C1638.83 132.82 1442.47 -40.4878 1258.67 8.08376Z" fill="#754730"/>
<path fill-rule="evenodd" clip-rule="evenodd" d="M1351.8 187.672C1339.11 185.601 1325.55 203.639 1321.67 227.959C1317.73 252.278 1324.88 273.657 1337.57 275.729C1350.27 277.8 1363.83 259.761 1367.7 235.442C1371.65 211.122 1364.5 189.743 1351.8 187.672V187.672Z" fill="#F0BBAF"/>
<path fill-rule="evenodd" clip-rule="evenodd" d="M1281.32 202.236C1183.24 140.57 1189.65 18.306 1256.6 8.752C1117.09 -1.60369 1132.59 144.445 1281.32 202.236Z" fill="#754730"/>
<path fill-rule="evenodd" clip-rule="evenodd" d="M1473.73 1855.54C1511.82 1858.41 1564.87 1889.08 1575.62 1916.81C1600.28 1923.55 1644.37 1894.62 1665.02 1889.01C1685.66 1883.47 1696.62 1933.37 1679.72 1937.92L1486.5 1989.96C1410.73 2010.41 1372.98 2005 1363.56 1967.58C1358.75 1948.41 1381.4 1916.2 1414.07 1906.32C1444.87 1897.03 1464.78 1875.58 1473.73 1855.47V1855.54Z" fill="#74BFED"/>
<path fill-rule="evenodd" clip-rule="evenodd" d="M1429.71 482.375C1348.26 449.704 1285.73 538.964 1247.58 635.84C1280.65 651.941 1347.66 686.616 1391.42 703.72C1447.68 615.195 1480.35 502.685 1429.71 482.375V482.375Z" fill="#85D0FF"/>
<path fill-rule="evenodd" clip-rule="evenodd" d="M1408.19 973.101L1346.06 905.421C1343.79 902.949 1339.98 902.816 1337.51 905.087L1336.17 906.29L1292.61 860.725C1288.47 856.382 1283.52 860.858 1287.53 865.401L1329.22 912.704L1328.95 912.904C1326.48 915.176 1326.35 918.984 1328.62 921.456L1390.75 989.135C1393.03 991.607 1396.83 991.741 1399.31 989.469L1407.79 981.652C1410.26 979.381 1410.4 975.573 1408.13 973.101H1408.19Z" fill="white"/>
<path fill-rule="evenodd" clip-rule="evenodd" d="M1353.74 925.331C1352.27 923.728 1349.73 923.594 1348.13 925.064C1346.53 926.534 1346.39 929.072 1347.86 930.676C1349.33 932.279 1351.87 932.413 1353.47 930.943C1355.08 929.473 1355.21 926.934 1353.74 925.331Z" fill="#E66E6E"/>
<path fill-rule="evenodd" clip-rule="evenodd" d="M1298.42 866.671L1292.67 860.658C1288.53 856.316 1283.59 860.792 1287.6 865.335L1293.08 871.615L1298.35 866.738L1298.42 866.671Z" fill="#E66E6E"/>
<path fill-rule="evenodd" clip-rule="evenodd" d="M1408.19 973.101L1404.45 969.093L1387.08 985.061L1390.75 989.069C1393.03 991.541 1396.83 991.675 1399.31 989.403L1407.79 981.586C1410.26 979.315 1410.4 975.507 1408.13 973.035L1408.19 973.101Z" fill="#E66E6E"/>
<path d="M1363.87 934.187L1355.79 941.597L1384.17 972.506L1392.24 965.097L1363.87 934.187Z" fill="#343F51"/>
<path fill-rule="evenodd" clip-rule="evenodd" d="M1325.68 931.077C1353.87 936.155 1382.87 936.622 1412.8 931.077C1416.48 971.364 1416.21 1011.72 1412.8 1052C1382.87 1054.68 1353.81 1054.68 1325.68 1052C1321.34 1018.2 1320.53 979.114 1325.68 931.077Z" fill="#85D0FF"/>
<path fill-rule="evenodd" clip-rule="evenodd" d="M1414.27 950.251C1383.27 955.062 1353.21 954.661 1323.88 950.251C1324.34 943.971 1324.94 937.624 1325.68 931.01C1353.87 936.087 1382.87 936.555 1412.8 931.01C1413.4 937.424 1413.87 943.837 1414.27 950.251Z" fill="#A1D9FC"/>
</g>
<defs>
<clipPath id="clip0_1133_2107">
<rect width="1688" height="2007" fill="white"/>
</clipPath>
</defs>
</svg>
